# File created by Blade
# Date/Time:  Wed Jan 21 16:14:13 2015
# Frame Rate: 120.000 fps
#------------------------------------------------------
:FULLY-SPECIFIED
:DEGREES
402
root 18.753045 35.699764 -19.005800 -179.410223 -2.128572 -178.965395
Spine -11.437296 1.618036 -1.045061
Head 9.619524 -4.484627 0.149025
LeftShoulder 13.884148 -47.457741 6.445600
LeftArm 22.049768 29.065987 -19.024846
LeftForeArm 16.142424 0.000000 1.473948
LeftHand -3.989915 -0.000000 -7.959407
LeftHandThumb1 -26.253704 0.000000 33.147579
RightShoulder 7.295873 8.535020 -14.233210
RightArm 34.605700 11.581687 23.749790
RightForeArm -36.100626 -0.000000 7.172020
RightHand 2.061679 -0.000000 12.413511
RightHandThumb1 -24.326973 -0.000000 -32.862282
LeftUpLeg 5.044930 9.295789 1.200454
LeftLeg -5.016253 -0.000000 0.000000
LeftFoot -18.411919 25.295733 -11.257494
LeftToeBase 26.433645 -0.000000 -0.000000
RightUpLeg 4.185743 -9.340071 1.161400
RightLeg -2.633646 -0.000000 0.000000
RightFoot -19.400700 -25.397189 14.138576
RightToeBase 23.797915 -0.000000 -0.000000
403
root 18.750958 35.703698 -19.021591 -179.215271 -2.022916 -178.957408
Spine -11.458164 1.512443 -1.078346
Head 9.321184 -4.328324 0.458236
LeftShoulder 13.089739 -47.448765 7.003764
LeftArm 20.791331 29.424594 -17.763735
LeftForeArm 16.128136 0.000000 1.498148
LeftHand -4.005698 -0.000000 -8.100479
LeftHandThumb1 -26.253704 0.000000 33.147579
RightShoulder 6.939027 8.139485 -14.159581
RightArm 33.179313 11.412465 22.528973
RightForeArm -36.050886 -0.000000 7.121282
RightHand 2.414772 -0.000000 12.570255
RightHandThumb1 -24.326973 -0.000000 -32.862282
LeftUpLeg 4.886721 9.382132 1.178306
LeftLeg -5.021729 -0.000000 0.000000
LeftFoot -18.443257 25.304918 -11.349050
LeftToeBase 26.263702 -0.000000 -0.000000
RightUpLeg 3.999243 -9.334644 1.190336
RightLeg -2.626698 -0.000000 0.000000
RightFoot -19.391329 -25.299137 14.233230
RightToeBase 23.774566 -0.000000 -0.000000
404
root 18.748901 35.707380 -19.035121 -178.955335 -1.969705 -178.955164
Spine -11.559213 1.350800 -1.128977
Head 9.051469 -4.256449 0.760895
LeftShoulder 12.187282 -47.143794 7.654697
LeftArm 19.670031 29.463490 -16.483969
LeftForeArm 16.183399 -0.000000 1.480799
LeftHand -3.942753 -0.000000 -8.060321
LeftHandThumb1 -26.253704 0.000000 33.147579
RightShoulder 6.578904 7.858985 -14.051837
RightArm 31.709023 11.183192 21.401798
RightForeArm -35.833623 -0.000000 7.099933
RightHand 2.553941 -0.000000 12.871006
RightHandThumb1 -24.326973 -0.000000 -32.862282
LeftUpLeg 4.639832 9.379078 1.135311
LeftLeg -4.990811 -0.000000 0.000000
LeftFoot -18.482307 25.345722 -11.413337
LeftToeBase 26.450187 -0.000000 -0.000000
RightUpLeg 3.721487 -9.462032 1.225000
RightLeg -2.571681 -0.000000 0.000000
RightFoot -19.392210 -25.133247 14.288307
RightToeBase 23.723496 -0.000000 -0.000000
405
root 18.748365 35.710900 -19.047384 -178.711292 -1.899082 -178.942045
Spine -11.641401 1.195541 -1.154745
Head 8.820532 -4.062272 1.075284
LeftShoulder 11.354617 -47.173733 8.226207
LeftArm 18.313982 29.755203 -15.341032
LeftForeArm 16.360560 0.000000 1.574145
LeftHand -3.890800 -0.000000 -8.271848
LeftHandThumb1 -26.253704 0.000000 33.147579
RightShoulder 6.294100 7.636280 -13.943992
RightArm 30.156478 10.943152 20.340113
RightForeArm -35.689059 -0.000000 7.080127
RightHand 2.704551 0.000000 12.989767
RightHandThumb1 -24.326973 -0.000000 -32.862282
LeftUpLeg 4.410164 9.409229 1.110164
LeftLeg -4.968497 -0.000000 0.000000
LeftFoot -18.482564 25.389519 -11.436090
LeftToeBase 26.214885 -0.000000 -0.000000
RightUpLeg 3.485335 -9.448275 1.269568
RightLeg -2.570555 -0.000000 0.000000
RightFoot -19.373195 -25.065503 14.379947
RightToeBase 23.878908 -0.000000 -0.000000
406
root 18.748180 35.714207 -19.060049 -178.417452 -1.791893 -178.921720
Spine -11.789255 1.115287 -1.176585
Head 8.594834 -3.942357 1.333124
LeftShoulder 10.377162 -46.857305 8.879920
LeftArm 17.368144 29.885023 -14.089426
LeftForeArm 16.375527 0.000000 1.425646
LeftHand -4.205913 0.000000 -8.202575
LeftHandThumb1 -26.253704 0.000000 33.147579
RightShoulder 5.923850 7.319884 -13.818254
RightArm 28.710279 10.938979 19.407973
RightForeArm -35.614125 -0.000000 7.095020
RightHand 2.658430 -0.000000 13.330664
RightHandThumb1 -24.326973 -0.000000 -32.862282
LeftUpLeg 4.136878 9.440523 1.084726
LeftLeg -4.933781 -0.000000 0.000000
LeftFoot -18.466497 25.443823 -11.410744
LeftToeBase 26.262613 -0.000000 -0.000000
RightUpLeg 3.181245 -9.400246 1.331343
RightLeg -2.538088 -0.000000 0.000000
RightFoot -19.386528 -24.972519 14.490253
RightToeBase 23.655596 -0.000000 -0.000000
407
root 18.747305 35.715066 -19.072419 -178.114954 -1.656352 -178.909336
Spine -11.972959 1.063986 -1.219478
Head 8.435883 -3.846801 1.607220
LeftShoulder 9.465181 -46.577711 9.571163
LeftArm 16.231534 29.894829 -13.080184
LeftForeArm 16.424393 -0.000000 1.276765
LeftHand -4.125797 0.000000 -8.254054
LeftHandThumb1 -26.253704 0.000000 33.147579
RightShoulder 5.609809 6.855213 -13.647425
RightArm 27.376042 11.010413 18.434616
RightForeArm -35.338490 -0.000000 6.740544
RightHand 2.886574 -0.000000 13.398839
RightHandThumb1 -24.326973 -0.000000 -32.862282
LeftUpLeg 3.862605 9.494821 1.044923
LeftLeg -4.916508 -0.000000 0.000000
LeftFoot -18.509963 25.511191 -11.452600
LeftToeBase 26.178627 -0.000000 -0.000000
RightUpLeg 2.861650 -9.297568 1.384378
RightLeg -2.499325 -0.000000 0.000000
RightFoot -19.419110 -24.898572 14.540958
RightToeBase 23.759108 -0.000000 -0.000000
408
root 18.745256 35.715581 -19.087504 -177.873185 -1.560317 -178.890971
Spine -12.060100 0.967871 -1.263886
Head 8.241014 -3.719523 1.910233
LeftShoulder 8.527851 -46.350619 10.307818
LeftArm 15.063176 29.953196 -12.133708
LeftForeArm 16.452193 -0.000000 1.142468
LeftHand -4.147688 -0.000000 -8.455533
LeftHandThumb1 -26.253704 0.000000 33.147579
RightShoulder 5.310982 6.342750 -13.489551
RightArm 26.060497 11.106054 17.514363
RightForeArm -34.941355 -0.000000 6.403443
RightHand 2.808249 0.000000 13.397151
RightHandThumb1 -24.326973 -0.000000 -32.862282
LeftUpLeg 3.648276 9.526238 1.019660
LeftLeg -4.908110 -0.000000 0.000000
LeftFoot -18.610205 25.558846 -11.565031
LeftToeBase 26.080387 -0.000000 -0.000000
RightUpLeg 2.614865 -9.248116 1.430315
RightLeg -2.467016 -0.000000 0.000000
RightFoot -19.427874 -24.836222 14.573112
RightToeBase 23.772036 -0.000000 -0.000000
409
root 18.742514 35.717232 -19.105500 -177.671768 -1.463210 -178.872893
Spine -12.114082 0.918301 -1.289753
Head 8.046235 -3.743955 2.158017
LeftShoulder 7.631449 -46.109784 10.954319
LeftArm 13.924589 30.018785 -11.189374
LeftForeArm 16.492160 0.000000 0.999366
LeftHand -4.127495 -0.000000 -8.574119
LeftHandThumb1 -26.253704 0.000000 33.147579
RightShoulder 4.972913 6.343975 -13.341585
RightArm 24.543161 11.048357 16.815545
RightForeArm -35.273441 -0.000000 6.232293
RightHand 2.834076 0.000000 13.404734
RightHandThumb1 -24.326973 -0.000000 -32.862282
LeftUpLeg 3.490148 9.562331 0.998749
LeftLeg -4.909084 -0.000000 0.000000
LeftFoot -18.650606 25.608048 -11.599831
LeftToeBase 26.240108 -0.000000 -0.000000
RightUpLeg 2.424226 -9.176352 1.466266
RightLeg -2.451379 -0.000000 0.000000
RightFoot -19.414335 -24.792182 14.647212
RightToeBase 23.669264 -0.000000 -0.000000
410
root 18.739466 35.720364 -19.119774 -177.303072 -1.359873 -178.857481
Spine -12.392187 0.951730 -1.348501
Head 7.922122 -3.690075 2.413303
LeftShoulder 6.656716 -45.708919 11.702152
LeftArm 12.909640 29.748249 -10.428658
LeftForeArm 16.566359 -0.000000 0.834335
LeftHand -4.043933 -0.000000 -8.786024
LeftHandThumb1 -26.253704 0.000000 33.147579
RightShoulder 4.493321 5.970548 -13.229456
RightArm 23.210626 11.351597 16.208244
RightForeArm -35.293486 -0.000000 6.075996
RightHand 2.852832 -0.000000 13.484615
RightHandThumb1 -24.326973 -0.000000 -32.862282
LeftUpLeg 3.146481 9.628237 0.946292
LeftLeg -4.894851 -0.000000 0.000000
LeftFoot -18.603524 25.688360 -11.562784
LeftToeBase 25.867389 -0.000000 -0.000000
RightUpLeg 2.047644 -9.066512 1.531632
RightLeg -2.422827 -0.000000 0.000000
RightFoot -19.442895 -24.760835 14.754062
RightToeBase 23.714653 -0.000000 -0.000000
411
root 18.736255 35.722313 -19.139781 -177.079430 -1.277488 -178.832347
Spine -12.491227 0.995740 -1.389620
Head 7.805929 -3.770110 2.625036
LeftShoulder 5.703379 -45.339712 12.395020
LeftArm 11.916231 29.408913 -9.703832
LeftForeArm 16.591090 -0.000000 0.645643
LeftHand -3.985832 0.000000 -8.880993
LeftHandThumb1 -26.253704 0.000000 33.147579
RightShoulder 3.987311 5.530448 -13.144079
RightArm 21.903266 11.776641 15.654122
RightForeArm -35.600387 -0.000000 5.865613
RightHand 2.842210 -0.000000 13.567671
RightHandThumb1 -24.326973 -0.000000 -32.862282
LeftUpLeg 2.965153 9.652485 0.929599
LeftLeg -4.889538 -0.000000 0.000000
LeftFoot -18.657577 25.737549 -11.600330
LeftToeBase 26.044650 -0.000000 -0.000000
RightUpLeg 1.844211 -8.962288 1.579684
RightLeg -2.420363 -0.000000 0.000000
RightFoot -19.462519 -24.758553 14.849259
RightToeBase 23.641617 -0.000000 -0.000000
412
root 18.731158 35.724515 -19.156458 -176.782137 -1.205827 -178.810908
Spine -12.678146 1.067115 -1.433759
Head 7.707406 -3.810551 2.820569
LeftShoulder 4.698865 -44.924656 13.123008
LeftArm 10.987872 28.842205 -9.110364
LeftForeArm 16.913420 -0.000000 0.431713
LeftHand -3.976833 -0.000000 -8.978463
LeftHandThumb1 -26.253704 0.000000 33.147579
RightShoulder 3.482695 5.453656 -13.037672
RightArm 20.495812 11.987448 15.113881
RightForeArm -35.803669 -0.000000 5.639175
RightHand 2.922106 -0.000000 13.526215
RightHandThumb1 -24.326973 -0.000000 -32.862282
LeftUpLeg 2.698212 9.665660 0.889847
LeftLeg -4.884368 -0.000000 0.000000
LeftFoot -18.680050 25.816553 -11.627519
LeftToeBase 26.032252 -0.000000 -0.000000
RightUpLeg 1.555586 -8.867586 1.634266
RightLeg -2.407180 -0.000000 0.000000
RightFoot -19.461074 -24.755501 14.959836
RightToeBase 23.603764 -0.000000 -0.000000
